<svg viewBox="0 0 63.2 55.22"><path d="M56.49 3.94a19.29 19.29 0 016 9.13 18.12 18.12 0 010 9.8 19.24 19.24 0 01-4.69 8.44L36.27 53.25a6.56 6.56 0 01-9.37 0L5.33 31.31a19.13 19.13 0 01-4.68-8.44 17.28 17.28 0 01.12-9.8 18.42 18.42 0 015.92-9.13 16 16 0 018-3.69 18.78 18.78 0 019.07.75 19.47 19.47 0 017.83 4.8A19.5 19.5 0 0139.41 1a18.78 18.78 0 019.06-.75 16 16 0 018.02 3.69zm-2.84 23.18a13.14 13.14 0 003.14-5.73 12 12 0 00-.06-6.72 12.12 12.12 0 00-4.06-6.16 11.37 11.37 0 00-8.45-2.59 12.53 12.53 0 00-8.32 3.94l-4.31 4.32-4.32-4.32A12.51 12.51 0 0019 5.92a11.34 11.34 0 00-8.44 2.59 12.21 12.21 0 00-4.07 6.16 12 12 0 00-.06 6.72 13.25 13.25 0 003.14 5.73l21.7 21.94c.24.33.49.33.74 0z"/></svg>