<svg viewBox="0 0 40 40"><path d="M20 9.73a9.88 9.88 0 015.13 1.39 10.22 10.22 0 013.75 3.75 10.16 10.16 0 010 10.26 10.22 10.22 0 01-3.75 3.75 10.16 10.16 0 01-10.26 0 10.22 10.22 0 01-3.75-3.75 10.16 10.16 0 010-10.26 10.22 10.22 0 013.75-3.75A9.88 9.88 0 0120 9.73zm0 17A6.73 6.73 0 0026.7 20a6.73 6.73 0 00-6.7-6.7 6.73 6.73 0 00-6.7 6.7 6.73 6.73 0 006.7 6.7zM33.12 9.29A2.41 2.41 0 1029 11a2.29 2.29 0 001.69.72 2.18 2.18 0 001.68-.72 2.73 2.73 0 00.75-1.71zm6.79 2.41Q40 14.19 40 20t-.13 8.35a17.2 17.2 0 01-.76 4.42 10.51 10.51 0 01-6.34 6.34 17.2 17.2 0 01-4.42.76Q25.8 40 20 40t-8.35-.13A14.83 14.83 0 017.23 39a9.55 9.55 0 01-3.88-2.37 10.45 10.45 0 01-2.46-3.86 17.2 17.2 0 01-.76-4.42Q0 25.8 0 20t.13-8.35a17.2 17.2 0 01.76-4.42A10.51 10.51 0 017.23.89a17.2 17.2 0 014.42-.76Q14.2 0 20 0t8.35.13a17.2 17.2 0 014.42.76 10.51 10.51 0 016.34 6.34 18.56 18.56 0 01.8 4.47zm-4.29 20.09a18.75 18.75 0 00.72-4.79c.06-1.31.09-3.15.09-5.53v-2.9c0-2.44 0-4.28-.09-5.53a17.86 17.86 0 00-.72-4.83 6.46 6.46 0 00-3.83-3.84A18.37 18.37 0 0027 3.66c-1.31-.06-3.15-.09-5.53-.09h-2.9c-2.38 0-4.22 0-5.53.09a19.3 19.3 0 00-4.83.71 6.5 6.5 0 00-3.84 3.84A18.37 18.37 0 003.66 13c-.06 1.31-.09 3.15-.09 5.53v2.86c0 2.38 0 4.22.09 5.53a19.3 19.3 0 00.71 4.83 6.79 6.79 0 003.84 3.83 18.75 18.75 0 004.83.72c1.31.06 3.15.09 5.53.09h2.86c2.44 0 4.28 0 5.53-.09a17.86 17.86 0 004.83-.72 6.75 6.75 0 003.83-3.79z"/></svg>