<svg viewBox="0 0 97.58 97.82"><path d="M75.86 0h-.32a3.27 3.27 0 00-1.92 1L1 73.81a3.25 3.25 0 000 4.6l18.34 18.46a3.25 3.25 0 004.6 0L96.62 24a3.26 3.26 0 000-4.61L78.21 1a3.24 3.24 0 00-2.35-1zm.07 7.87L89.71 21.7 21.64 89.93 7.84 76.12l3.68-3.69 6.91 6.91c3.07 3.19 7.78-1.55 4.58-4.61l-6.89-6.91 4.6-4.61 4.6 4.61c3.07 3.08 7.68-1.55 4.61-4.63l-4.61-4.59 4.61-4.6 6.89 6.93c3.07 3.08 7.68-1.54 4.61-4.62l-6.91-6.92 4.6-4.61 4.62 4.62c3.07 3.19 7.77-1.56 4.58-4.62l-4.6-4.61 4.6-4.61 6.91 6.91c3.05 3.55 8.13-1.54 4.59-4.6l-6.91-6.91 4.62-4.63 4.59 4.61c3.05 3.55 8.13-1.54 4.59-4.59l-4.59-4.62 4.6-4.61 6.9 6.88c3.08 3.19 7.78-1.55 4.59-4.61l-6.89-6.91z" fill-rule="evenodd"/></svg>