<svg class="svg-sprites" id="skin-sprite" xmlns="http://www.w3.org/2000/svg" xmlns:xlink="http://www.w3.org/1999/xlink">
    <symbol viewBox="0 0 54.78 64.94" id="z-cart"><path d="M24 0a8.76 8.76 0 00-8.82 8.66v5.11H6a2 2 0 00-1.86 1.85L0 62.74a2 2 0 001.88 2.19h50.84a2 2 0 002.06-2v-.17l-4.13-47.14a2 2 0 00-2.06-1.85h-9V8.66A8.75 8.75 0 0030.77 0zm0 4.06h6.74a4.57 4.57 0 014.67 4.6v5.11H19.34V8.66A4.59 4.59 0 0124 4.06zM8 17.83h7.14v6a2.07 2.07 0 004.13 0v-6h16.1v6a2.07 2.07 0 004.13 0v-6h7.14l3.76 43.05H4.32z"/></symbol>
    <symbol viewBox="0 0 40 25" id="z-email"><path d="M2.19 0l17.33 15.83a.88.88 0 001 0L37.81 0zM0 2.06V23l11.89-10zm40 0L28.11 12.94 40 23V2.06zM14.12 15L2.23 25h35.54l-11.9-10-3.35 3.08a3.74 3.74 0 01-5 0z"/></symbol>
    <symbol viewBox="0 0 63.2 55.22" id="z-heart"><path d="M56.49 3.94a19.29 19.29 0 016 9.13 18.12 18.12 0 010 9.8 19.24 19.24 0 01-4.69 8.44L36.27 53.25a6.56 6.56 0 01-9.37 0L5.33 31.31a19.13 19.13 0 01-4.68-8.44 17.28 17.28 0 01.12-9.8 18.42 18.42 0 015.92-9.13 16 16 0 018-3.69 18.78 18.78 0 019.07.75 19.47 19.47 0 017.83 4.8A19.5 19.5 0 0139.41 1a18.78 18.78 0 019.06-.75 16 16 0 018.02 3.69zm-2.84 23.18a13.14 13.14 0 003.14-5.73 12 12 0 00-.06-6.72 12.12 12.12 0 00-4.06-6.16 11.37 11.37 0 00-8.45-2.59 12.53 12.53 0 00-8.32 3.94l-4.31 4.32-4.32-4.32A12.51 12.51 0 0019 5.92a11.34 11.34 0 00-8.44 2.59 12.21 12.21 0 00-4.07 6.16 12 12 0 00-.06 6.72 13.25 13.25 0 003.14 5.73l21.7 21.94c.24.33.49.33.74 0z"/></symbol>
    <symbol viewBox="0 0 40 40" id="z-instagram"><path d="M20 9.73a9.88 9.88 0 015.13 1.39 10.22 10.22 0 013.75 3.75 10.16 10.16 0 010 10.26 10.22 10.22 0 01-3.75 3.75 10.16 10.16 0 01-10.26 0 10.22 10.22 0 01-3.75-3.75 10.16 10.16 0 010-10.26 10.22 10.22 0 013.75-3.75A9.88 9.88 0 0120 9.73zm0 17A6.73 6.73 0 0026.7 20a6.73 6.73 0 00-6.7-6.7 6.73 6.73 0 00-6.7 6.7 6.73 6.73 0 006.7 6.7zM33.12 9.29A2.41 2.41 0 1029 11a2.29 2.29 0 001.69.72 2.18 2.18 0 001.68-.72 2.73 2.73 0 00.75-1.71zm6.79 2.41Q40 14.19 40 20t-.13 8.35a17.2 17.2 0 01-.76 4.42 10.51 10.51 0 01-6.34 6.34 17.2 17.2 0 01-4.42.76Q25.8 40 20 40t-8.35-.13A14.83 14.83 0 017.23 39a9.55 9.55 0 01-3.88-2.37 10.45 10.45 0 01-2.46-3.86 17.2 17.2 0 01-.76-4.42Q0 25.8 0 20t.13-8.35a17.2 17.2 0 01.76-4.42A10.51 10.51 0 017.23.89a17.2 17.2 0 014.42-.76Q14.2 0 20 0t8.35.13a17.2 17.2 0 014.42.76 10.51 10.51 0 016.34 6.34 18.56 18.56 0 01.8 4.47zm-4.29 20.09a18.75 18.75 0 00.72-4.79c.06-1.31.09-3.15.09-5.53v-2.9c0-2.44 0-4.28-.09-5.53a17.86 17.86 0 00-.72-4.83 6.46 6.46 0 00-3.83-3.84A18.37 18.37 0 0027 3.66c-1.31-.06-3.15-.09-5.53-.09h-2.9c-2.38 0-4.22 0-5.53.09a19.3 19.3 0 00-4.83.71 6.5 6.5 0 00-3.84 3.84A18.37 18.37 0 003.66 13c-.06 1.31-.09 3.15-.09 5.53v2.86c0 2.38 0 4.22.09 5.53a19.3 19.3 0 00.71 4.83 6.79 6.79 0 003.84 3.83 18.75 18.75 0 004.83.72c1.31.06 3.15.09 5.53.09h2.86c2.44 0 4.28 0 5.53-.09a17.86 17.86 0 004.83-.72 6.75 6.75 0 003.83-3.79z"/></symbol>
    <symbol viewBox="0 0 97.58 97.82" id="z-ruler"><path d="M75.86 0h-.32a3.27 3.27 0 00-1.92 1L1 73.81a3.25 3.25 0 000 4.6l18.34 18.46a3.25 3.25 0 004.6 0L96.62 24a3.26 3.26 0 000-4.61L78.21 1a3.24 3.24 0 00-2.35-1zm.07 7.87L89.71 21.7 21.64 89.93 7.84 76.12l3.68-3.69 6.91 6.91c3.07 3.19 7.78-1.55 4.58-4.61l-6.89-6.91 4.6-4.61 4.6 4.61c3.07 3.08 7.68-1.55 4.61-4.63l-4.61-4.59 4.61-4.6 6.89 6.93c3.07 3.08 7.68-1.54 4.61-4.62l-6.91-6.92 4.6-4.61 4.62 4.62c3.07 3.19 7.77-1.56 4.58-4.62l-4.6-4.61 4.6-4.61 6.91 6.91c3.05 3.55 8.13-1.54 4.59-4.6l-6.91-6.91 4.62-4.63 4.59 4.61c3.05 3.55 8.13-1.54 4.59-4.59l-4.59-4.62 4.6-4.61 6.9 6.88c3.08 3.19 7.78-1.55 4.59-4.61l-6.89-6.91z" fill-rule="evenodd"/></symbol>
    <symbol viewBox="0 0 52.58 52.57" id="z-search"><path d="M.63 48.93l11-11a23.15 23.15 0 113 3l-11 11a2.13 2.13 0 01-1.51.62A2.17 2.17 0 01.62 52a2.13 2.13 0 01.01-3.07zM42.79 36.5A18.92 18.92 0 1029.43 42a18.9 18.9 0 0013.36-5.5z"/></symbol>
    <symbol viewBox="0 0 47.61 53.21" id="z-user"><path d="M23.81 26.77a13.22 13.22 0 0013.06-13.38A13.23 13.23 0 0023.81 0a13.23 13.23 0 00-13.07 13.39 13.23 13.23 0 0013.07 13.38zm0-21.2a7.72 7.72 0 017.62 7.82 7.63 7.63 0 11-15.25 0 7.73 7.73 0 017.63-7.82zm0 23.26A23.5 23.5 0 007 36a24.5 24.5 0 00-7 17.21h5.44A18.62 18.62 0 0123.81 34.4a18.61 18.61 0 0118.36 18.81h5.44c0-13.47-10.61-24.39-23.81-24.38z"/></symbol>
    <symbol viewBox="0 0 31.38 2.39" id="z-less"><path d="M0 2.39h31.38V0H0z"/></symbol>
    <symbol viewBox="0 0 32.36 31.57" id="z-plus"><path d="M32.36 15.08H17V0h-1.61v15.08H0v1.5h15.39v15H17v-15h15.36z"/></symbol>
</svg>