<svg class="svg-sprites" id="skin-sprite" xmlns="http://www.w3.org/2000/svg" xmlns:xlink="http://www.w3.org/1999/xlink">
    <symbol viewBox="0 0 54.78 64.94" id="z-cart"><path d="M24 0a8.76 8.76 0 00-8.82 8.66v5.11H6a2 2 0 00-1.86 1.85L0 62.74a2 2 0 001.88 2.19h50.84a2 2 0 002.06-2v-.17l-4.13-47.14a2 2 0 00-2.06-1.85h-9V8.66A8.75 8.75 0 0030.77 0zm0 4.06h6.74a4.57 4.57 0 014.67 4.6v5.11H19.34V8.66A4.59 4.59 0 0124 4.06zM8 17.83h7.14v6a2.07 2.07 0 004.13 0v-6h16.1v6a2.07 2.07 0 004.13 0v-6h7.14l3.76 43.05H4.32z"/></symbol>
    <symbol viewBox="0 0 52.58 52.57" id="z-search"><path d="M.63 48.93l11-11a23.15 23.15 0 113 3l-11 11a2.13 2.13 0 01-1.51.62A2.17 2.17 0 01.62 52a2.13 2.13 0 01.01-3.07zM42.79 36.5A18.92 18.92 0 1029.43 42a18.9 18.9 0 0013.36-5.5z"/></symbol>
    <symbol viewBox="0 0 47.61 53.21" id="z-user"><path d="M23.81 26.77a13.22 13.22 0 0013.06-13.38A13.23 13.23 0 0023.81 0a13.23 13.23 0 00-13.07 13.39 13.23 13.23 0 0013.07 13.38zm0-21.2a7.72 7.72 0 017.62 7.82 7.63 7.63 0 11-15.25 0 7.73 7.73 0 017.63-7.82zm0 23.26A23.5 23.5 0 007 36a24.5 24.5 0 00-7 17.21h5.44A18.62 18.62 0 0123.81 34.4a18.61 18.61 0 0118.36 18.81h5.44c0-13.47-10.61-24.39-23.81-24.38z"/></symbol>
</svg>